<svg width="93" height="66" viewBox="0 0 93 66" fill="none" xmlns="http://www.w3.org/2000/svg">
<path fill-rule="evenodd" clip-rule="evenodd" d="M67.1671 32.6312C67.642 32.1856 67.6728 31.4357 67.2329 30.9547C66.7926 30.4722 66.0526 30.4429 65.5777 30.8886C65.1018 31.3327 65.0728 32.0842 65.5126 32.5651C65.9512 33.0461 66.6928 33.0755 67.1671 32.6312ZM7.13075 35.4345C7.13075 35.4345 -7.57962 47.9309 24.7441 50.6317C24.7441 50.6317 -16.062 55.3495 7.13075 35.4345ZM14.6881 37.4922C13.7866 34.302 14.9741 31.3827 15.6796 30.0399C15.6303 30.184 15.5838 30.3282 15.5388 30.4708C15.5968 30.3502 15.6534 30.2385 15.7071 30.1355C15.8958 29.7767 16.0497 29.5311 16.1209 29.4222C16.1266 29.3692 16.1324 29.3149 16.1382 29.2619C17.9935 12.792 31.7974 0 48.5499 0C57.1217 0 64.9202 3.34683 70.7414 8.82329C105.942 3.7332 88.9209 28.0794 88.6533 28.4589C98.3648 9.94981 79.6503 14.5495 76.2139 15.5241C79.289 20.4936 81.0953 26.3484 81.1728 32.6268C81.1748 32.7503 81.1758 32.8753 81.1758 33.0004C81.1758 33.1269 81.1748 33.2534 81.1728 33.3783C81.048 46.6721 73.1759 58.0861 61.9107 63.2158L61.9095 63.217C60.9918 63.6345 60.0501 64.0097 59.0887 64.3424C59.0715 64.348 59.0555 64.3542 59.0383 64.3586C58.4687 64.5101 57.9058 64.6527 57.3468 64.7836C55.1097 65.3126 52.9613 65.6803 50.9014 65.9145C50.1264 65.9718 49.3421 65.9999 48.5512 65.9999C45.9427 65.9999 43.4048 65.6897 40.9734 65.1026C38.542 64.5175 36.2164 63.6556 34.0287 62.5521C34.0287 62.5521 34.0287 62.5509 34.0273 62.5509C33.5569 62.3141 33.0924 62.0642 32.6336 61.8037C28.1973 59.905 16.4591 57.218 15.5577 57.0125C19.4234 57.8405 23.3909 57.8624 26.7979 57.5783C26.7921 57.5727 26.7849 57.567 26.7791 57.5608C27.1072 57.5402 27.4367 57.5153 27.7677 57.4874C31.3853 57.1166 34.2494 56.4361 35.4803 56.1108C44.2106 53.7548 51.1887 49.2544 58.8378 40.7903L59.3151 40.3435L59.4922 40.5379L59.2223 45.1L63.0461 41.5189L63.7996 37.8112C64.7259 37.2554 65.6971 36.5226 66.6364 35.6433C68.5032 33.8946 69.6441 32.2092 70.3669 30.4634C70.8201 29.3693 71.5238 27.8147 71.0914 27.3411C70.6634 26.872 69.0457 27.4515 67.9502 27.8133C66.1702 28.3986 64.4497 29.4296 62.5713 31.1885C61.6745 32.0283 60.9063 32.9091 60.2998 33.7652L56.4193 34.2564L52.5953 37.8361L57.1057 37.9227L57.2828 38.1172L56.8056 38.5639C56.8056 38.5639 26.0126 49.5249 17.0399 41.5425C17.0282 41.5319 17.018 41.5232 17.0065 41.5114H17.005C16.0934 40.5449 15.4677 39.5553 15.0598 38.5771C15.0569 38.5728 15.0553 38.5702 15.0553 38.5671C14.9247 38.2556 14.8174 37.9451 14.7288 37.6374C14.7142 37.5888 14.6997 37.5407 14.6882 37.4922H14.6881ZM68.1981 14.3253C67.169 14.3253 67.1703 12.7074 68.1981 12.7074C69.2271 12.7074 69.2246 14.3253 68.1981 14.3253ZM63.9393 9.61958C62.5368 9.61958 62.5381 7.41353 63.9393 7.41353C65.3429 7.41353 65.341 9.61958 63.9393 9.61958ZM63.358 21.6791C62.3289 21.6791 62.3321 20.0617 63.358 20.0617C64.3877 20.0617 64.3857 21.6791 63.358 21.6791ZM68.1009 9.32493C68.5684 9.32493 68.5684 10.061 68.1009 10.061C67.6334 10.061 67.6334 9.32493 68.1009 9.32493ZM60.7452 5.74667C60.2777 5.74667 60.2795 5.01165 60.7452 5.01165C61.2144 5.01165 61.2127 5.74667 60.7452 5.74667ZM56.6808 15.8453C56.2133 15.8453 56.2145 15.1092 56.6808 15.1092C57.1494 15.1092 57.1483 15.8453 56.6808 15.8453ZM55.3263 8.49101C54.8589 8.49101 54.8589 7.75599 55.3263 7.75599C55.7938 7.75599 55.7938 8.49101 55.3263 8.49101ZM53.9719 2.92787C53.2227 2.92787 53.2239 1.75141 53.9719 1.75141C54.7192 1.75141 54.718 2.92787 53.9719 2.92787ZM48.4553 5.10851C47.4262 5.10851 47.4275 3.49061 48.4553 3.49061C49.4849 3.49061 49.4819 5.10851 48.4553 5.10851ZM41.0023 14.1785C40.5349 14.1785 40.5367 13.4435 41.0023 13.4435C41.4716 13.4435 41.4698 14.1785 41.0023 14.1785ZM35.5835 4.47238C35.1161 4.47238 35.1161 3.73638 35.5835 3.73638C36.051 3.73638 36.051 4.47238 35.5835 4.47238Z" fill="url(#paint0_linear_45_277)"/>
<defs>
<linearGradient id="paint0_linear_45_277" x1="19.0637" y1="42.5225" x2="96.0932" y2="25.4478" gradientUnits="userSpaceOnUse">
<stop stop-color="#ED1C24"/>
<stop offset="0.4" stop-color="#841844"/>
<stop offset="1" stop-color="#1B1464"/>
</linearGradient>
</defs>
</svg>
